<svg xmlns="http://www.w3.org/2000/svg" width="430" height="430" style="width:100%;height:100%;transform:translate3d(0,0,0);content-visibility:visible" viewBox="0 0 430 430"><defs><clipPath id="a"><path d="M0 0h430v430H0z"/></clipPath><clipPath id="c"><path d="M0 0h430v430H0z"/></clipPath><clipPath id="e"><path d="M0 0h430v430H0z"/></clipPath><clipPath id="d"><path d="M0 0h430v430H0z"/></clipPath><clipPath id="b"><path d="M0 0h430v430H0z"/></clipPath></defs><g clip-path="url(#a)"><g clip-path="url(#b)" style="display:block"><g style="display:block"><path fill="#FFC738" d="m262.035 133.992 53.586.072c0-9.099-3.232-17.339-8.464-23.296-5.223-5.967-12.448-9.652-20.427-9.652H57.706c-7.979 0-15.204 3.685-20.427 9.652-5.232 5.957-8.464 14.197-8.464 23.296l53.586-.072h179.634z" class="secondary"/><path fill="#FFC738" d="m89.817 16.402 53.586.072c0-9.099-3.232-17.339-8.464-23.296-5.223-5.967-12.448-9.652-20.427-9.652h-229.024c-7.979 0-15.204 3.685-20.427 9.652-5.232 5.957-8.464 14.197-8.464 23.296l53.586-.072H89.817z" class="secondary" style="mix-blend-mode:multiply" transform="translate(172.218 117.59)"/><path fill="#FFC738" d="M262.035 133.993H82.401c0-24.116 16.183-44.257 37.256-46.262 6.819-.649 13.881-1.523 20.531-2.701 5.039-.893 10.654 11.291 14.936 10.016 6.012-1.791 12.434-2.023 15.605-4.73 2.382-2.033 1.52-.726 1.52-3.369 0 5.797 4.251 1 13.792 4.092 4.958 1.607 12.979-6.907 19.068-5.858 6.396 1.102 13.145 1.929 19.67 2.55 21.073 2.005 37.256 22.146 37.256 46.262z" class="secondary"/><path fill="#B26836" d="M172.186 71.853c-1.343-.044-1.371-.052-2.344 1.352-4.475 6.454-17.507 9.914-32.999 12.384v48.97h70.744v-48.97c-14.523-2.316-27.169-5.192-32.368-10.842a10.692 10.692 0 0 1-1.102-1.41c-.869-1.336-.552-1.439-1.931-1.484z" class="quinary"/><path fill="#FFC738" d="M160.401 134.559v-21.547c0-7.443 5.291-13.477 11.817-13.477s11.817 6.034 11.817 13.477v21.547h-23.634z" class="secondary"/></g><g fill="none" stroke="#121331" stroke-linecap="round" stroke-linejoin="round" stroke-width="7" style="display:block"><path d="M81.78 133.895v92.18m179.634-92.18v92.18m0-92.18H81.78s0 0 0 0c0-24.116 16.183-44.257 37.256-46.262 24.69-2.35 52.561-7.654 52.561-19.628 0 11.974 27.871 17.278 52.561 19.628 21.073 2.005 37.256 22.146 37.256 46.262 0 0 0 0 0 0z" class="primary"/><path d="M93.73 101.019H57.085c-7.979 0-15.204 3.685-20.427 9.652-5.232 5.957-8.464 14.197-8.464 23.296l53.586-.072m-53.584.071v92.18m221.268-125.127h36.645c7.979 0 15.204 3.685 20.427 9.652 5.232 5.957 8.464 14.197 8.464 23.296l-53.586-.072m53.584.071v92.18M136.223 85.493v140.582m70.743-140.581v140.58m-47.186-92.179v-20.981c0-7.443 5.291-13.477 11.817-13.477 0 0 0 0 0 0 6.526 0 11.817 6.034 11.817 13.477v20.981" class="primary"/></g><g style="display:block"><path fill="#EBE6EF" d="M126.921 269.739H31.198a3 3 0 0 0-3 3v71.836a3 3 0 0 0 3 3H398.81a3 3 0 0 0 3-3v-71.836a3 3 0 0 0-3-3h-95.74" class="tertiary"/><path fill="#EBE6EF" d="M46.361 38.918h-95.722v-77.836h95.722a3 3 0 0 1 3 3v71.836a3 3 0 0 1-3 3z" class="tertiary" opacity=".5" style="mix-blend-mode:multiply" transform="translate(352.449 308.657)"/><path fill="#EBE6EF" d="M49.361 38.918h-95.722a3 3 0 0 1-3-3v-71.836a3 3 0 0 1 3-3h95.722v77.836z" class="tertiary" opacity=".5" style="mix-blend-mode:multiply" transform="translate(77.56 308.657)"/><path fill="#FFC738" d="M179.586 217.286c-20.878-28.83 35.401-62.386 35.401-62.386s56.381 33.556 35.401 62.386h-70.802z" class="secondary"/><path fill="#EBE6EF" d="M168.303 269.739v-49.454a3 3 0 0 1 3-3h87.386a3 3 0 0 1 3 3v49.454m-134.768 77.836v-98.206h41.382v98.206" class="tertiary"/><path fill="#EBE6EF" d="M-46.693 26.227v-49.454a3 3 0 0 1 3-3h87.386a3 3 0 0 1 3 3v49.454" class="tertiary" opacity=".5" style="mix-blend-mode:multiply" transform="translate(214.996 243.512)"/><path fill="#FFC738" d="M128.161 249.368c-11.466-17.481 19.442-37.826 19.442-37.826s30.963 20.345 19.441 37.826h-38.883zm134.768.068c-11.466-17.481 19.442-37.826 19.442-37.826s30.963 20.345 19.441 37.826h-38.883zm9.158 20.304H157.921a3 3 0 0 0-3 3v17.072a3 3 0 0 0 3 3h11.692v54.832h93.242v-54.832h9.232a3 3 0 0 0 3-3V272.74a3 3 0 0 0-3-3z" class="secondary"/><path fill="#3A3347" d="M231.732 347.643H200.61v-51.74a3 3 0 0 1 3-3h25.122a3 3 0 0 1 3 3v51.74z" class="quaternary"/></g><g fill="none" stroke="#121331" stroke-linecap="round" stroke-linejoin="round" stroke-width="7" style="display:block"><path d="M179.573 218.068c-20.878-28.83 35.401-62.386 35.401-62.386s56.381 33.556 35.401 62.386m-35.401-62.386v-18.376m.017 80.761v-15.458m-88.083 67.913H28.185v77.836h373.612v-77.836h-98.74m-41.386.003v-22.57m-93.38 22.57v-22.64" class="primary"/><path d="M168.291 235.205v-17.14h93.38v17.22" class="primary"/><path d="M128.148 250.15c-11.466-17.481 19.442-37.826 19.442-37.826s30.963 20.345 19.441 37.826m-19.442-37.826v-11.142m-20.678 147.173v-98.2h41.38v20.37m46.7-.003v-23.288m47.924 2.985c-11.466-17.481 19.442-37.826 19.442-37.826s30.963 20.345 19.441 37.826m-19.441-37.827V201.25" class="primary"/><path d="M303.061 348.425v-98.21h-41.39v20.31m0 77.9v-.07" class="primary"/><path d="M275.074 293.594H154.908v-23.072h120.166v23.072zm-105.601.092v54.74m62.246-54.74v54.74m-31.123-54.74v54.74m62.246-54.74v54.74M54.213 292.958v5.168m23.333-5.168v5.168m23.334-5.168v5.168m-46.667 22.628v5.168m23.333-5.168v5.168m23.334-5.168v5.168m228.214-32.964v5.168m23.333-5.168v5.168m23.334-5.168v5.168m-46.667 22.628v5.168m23.333-5.168v5.168m23.334-5.168v5.168" class="primary"/></g><g fill="none" style="display:none"><path class="quaternary"/><path class="quaternary"/></g><path fill="none" stroke="#3A3347" stroke-linecap="round" stroke-linejoin="round" stroke-width="7" d="M484 237v25.5m0-25.5v25.5" class="quaternary" style="display:block"/></g><g clip-path="url(#c)" style="display:none"><g clip-path="url(#d)" style="display:none"><g style="display:none"><path class="secondary"/><path class="secondary" style="mix-blend-mode:multiply"/><path class="secondary"/><path class="quinary"/><path class="secondary"/></g><g fill="none" style="display:none"><path class="primary"/><path class="primary"/><path class="primary"/><path class="primary"/><path class="primary"/><path class="primary"/><path class="primary"/><path class="primary"/><path class="primary"/><path class="primary"/></g></g><g clip-path="url(#e)" style="display:none"><g style="display:none"><path class="tertiary"/><path class="tertiary" style="mix-blend-mode:multiply"/><path class="tertiary" style="mix-blend-mode:multiply"/><path class="secondary"/><path fill="none" class="quaternary"/><path class="tertiary"/><path class="tertiary" style="mix-blend-mode:multiply"/><path class="tertiary"/><path class="tertiary"/><path class="secondary"/><path class="secondary"/><path class="secondary"/><path class="quaternary"/></g><g fill="none" style="display:none"><path class="primary"/><path class="primary"/><path class="primary"/><path class="primary"/><path class="primary"/><path class="primary"/><path class="primary"/><path class="primary"/><path class="primary"/><path class="primary"/><path class="primary"/><path class="primary"/><path class="primary"/><path class="primary"/><path class="primary"/><path class="primary"/><path class="primary"/><path class="primary"/><path class="primary"/><path class="primary"/><path class="primary"/><path class="primary"/><path class="primary"/><path class="primary"/><path class="primary"/><path class="primary"/><path class="primary"/><path class="primary"/><path class="primary"/><path class="primary"/><path class="primary"/><path class="primary"/></g></g></g></g></svg>