<svg xmlns="http://www.w3.org/2000/svg" width="430" height="430" style="width:100%;height:100%;transform:translate3d(0,0,0);content-visibility:visible" viewBox="0 0 430 430"><defs><clipPath id="i"><path d="M0 0h430v430H0z"/></clipPath><clipPath id="n"><path d="M0 0h430v430H0z"/></clipPath><clipPath id="q"><path d="M0 0h430v430H0z"/></clipPath><clipPath id="g"><path d="M0 0h430v430H0z"/></clipPath><clipPath id="o"><path d="M0 0h430v430H0z"/></clipPath><clipPath id="j"><path d="M0 0h430v430H0z"/></clipPath><clipPath id="h"><path d="M0 0h430v430H0z"/></clipPath><clipPath id="k"><path d="M0 0h430v430H0z"/></clipPath><filter id="a" width="100%" height="100%" x="0%" y="0%" filterUnits="objectBoundingBox"><feComponentTransfer in="SourceGraphic"><feFuncA tableValues="1.0 0.0" type="table"/></feComponentTransfer></filter><filter id="c" width="100%" height="100%" x="0%" y="0%" filterUnits="objectBoundingBox"><feComponentTransfer in="SourceGraphic"><feFuncA tableValues="1.0 0.0" type="table"/></feComponentTransfer></filter><filter id="e" width="100%" height="100%" x="0%" y="0%" filterUnits="objectBoundingBox"><feComponentTransfer in="SourceGraphic"><feFuncA tableValues="1.0 0.0" type="table"/></feComponentTransfer></filter><mask id="p" mask-type="alpha"><g filter="url(#a)"><path fill="#fff" d="M0 0h430v430H0z" opacity="0"/><use xmlns:ns1="http://www.w3.org/1999/xlink" ns1:href="#b"/></g></mask><mask id="m" mask-type="alpha"><g filter="url(#c)"><path fill="#fff" d="M0 0h430v430H0z" opacity="0"/><use xmlns:ns2="http://www.w3.org/1999/xlink" ns2:href="#d"/></g></mask><mask id="l" mask-type="alpha"><g filter="url(#e)"><path fill="#fff" d="M0 0h430v430H0z" opacity="0"/><use xmlns:ns3="http://www.w3.org/1999/xlink" ns3:href="#f"/></g></mask><g id="b" clip-path="url(#g)" style="display:none"><path/><path fill-opacity="0" stroke-linecap="round" stroke-linejoin="round" class="primary"/><path fill-opacity="0" stroke-linecap="round" stroke-linejoin="round" class="primary"/><path fill-opacity="0" stroke-linecap="round" stroke-linejoin="round" class="primary"/><path fill-opacity="0" stroke-linecap="round" stroke-linejoin="round" class="primary"/><path fill-opacity="0" stroke-linecap="round" stroke-linejoin="round" class="primary"/><path fill-opacity="0" stroke-linecap="round" stroke-linejoin="round" class="primary"/><path fill-opacity="0" stroke-linecap="round" stroke-linejoin="round" class="primary"/><path fill-opacity="0" stroke-linecap="round" stroke-linejoin="round" class="secondary"/><path fill-opacity="0" stroke-linecap="round" stroke-linejoin="round" class="primary"/><path fill-opacity="0" stroke-linecap="round" stroke-linejoin="round" class="primary"/><path fill-opacity="0" stroke-linecap="round" stroke-linejoin="round" class="primary"/><path fill-opacity="0" stroke-linecap="round" stroke-linejoin="round" class="primary"/><path fill-opacity="0" stroke-linecap="round" stroke-linejoin="round" class="primary"/><path fill-opacity="0" stroke-linecap="round" stroke-linejoin="round" class="primary"/><path fill-opacity="0" stroke-linecap="round" stroke-linejoin="round" class="primary"/><path fill-opacity="0" stroke-linecap="round" stroke-linejoin="round" class="primary"/></g><g id="f" fill-opacity="0" stroke-linecap="round" stroke-linejoin="round" clip-path="url(#h)" style="display:block"><g style="display:none"><path/><path/></g><path stroke="#08A88A" stroke-width="36" d="M484 237v25.5m0-25.5v25.5" style="display:block"/></g><g id="d" style="display:block"><path fill="#FFF" d="M179.573 218.067c-20.878-28.83 35.401-62.386 35.401-62.386s56.381 33.556 35.401 62.386"/><path fill-opacity="0" stroke="#FFF" stroke-linecap="round" stroke-linejoin="round" stroke-width="36" d="M179.573 218.067c-20.878-28.83 35.401-62.386 35.401-62.386s56.381 33.556 35.401 62.386m-35.401-62.385v-18.376m-88.066 133.215H28.185v77.836h373.612v-77.836h-98.74"/><path fill="#FFF" d="M168.29 270.521v-52.454h93.386v52.454"/><path fill-opacity="0" stroke="#FFF" stroke-linecap="round" stroke-linejoin="round" stroke-width="36" d="M168.29 270.521v-52.454h93.386v52.454"/><path fill="#FFF" d="M128.148 250.15c-11.466-17.481 19.442-37.826 19.442-37.826s30.963 20.345 19.441 37.826"/><path fill-opacity="0" stroke="#FFF" stroke-linecap="round" stroke-linejoin="round" stroke-width="36" d="M128.148 250.15c-11.466-17.481 19.442-37.826 19.442-37.826s30.963 20.345 19.441 37.826"/><path fill="#FFF" d="M147.59 212.323v-11.142"/><path fill-opacity="0" stroke="#FFF" stroke-linecap="round" stroke-linejoin="round" stroke-width="36" d="M147.59 212.323v-11.142m-20.682 147.176v-98.206h41.382v98.206"/><path fill="#FFF" d="M262.916 250.218c-11.466-17.481 19.442-37.826 19.442-37.826s30.963 20.345 19.441 37.826"/><path fill-opacity="0" stroke="#FFF" stroke-linecap="round" stroke-linejoin="round" stroke-width="36" d="M262.916 250.218c-11.466-17.481 19.442-37.826 19.442-37.826s30.963 20.345 19.441 37.826"/><path fill="#FFF" d="M282.357 212.392V201.25"/><path fill-opacity="0" stroke="#FFF" stroke-linecap="round" stroke-linejoin="round" stroke-width="36" d="M282.357 212.392V201.25m-20.681 147.175v-98.206h41.382v98.206"/></g></defs><g fill="none" clip-path="url(#i)"><g clip-path="url(#j)" style="display:block"><g stroke-linecap="round" stroke-linejoin="round" stroke-width="12" clip-path="url(#k)" mask="url(#l)" style="display:block"><g stroke="#08A88A" mask="url(#m)" style="display:block"><path d="M81.78 133.895v92.18m179.634-92.18v92.18m0-92.18H81.78s0 0 0 0c0-24.116 16.183-44.257 37.256-46.262 24.69-2.35 52.561-7.654 52.561-19.628 0 11.974 27.871 17.278 52.561 19.628 21.073 2.005 37.256 22.146 37.256 46.262 0 0 0 0 0 0z" class="secondary"/><path d="M93.73 101.019H57.085c-7.979 0-15.204 3.685-20.427 9.652-5.232 5.957-8.464 14.197-8.464 23.296l53.586-.072m-53.584.071v92.18m221.268-125.127h36.645c7.979 0 15.204 3.685 20.427 9.652 5.232 5.957 8.464 14.197 8.464 23.296l-53.586-.072m53.584.071v92.18M136.223 85.493v140.582m70.743-140.581v140.58m-47.186-92.179v-20.981c0-7.443 5.291-13.477 11.817-13.477 0 0 0 0 0 0 6.526 0 11.817 6.034 11.817 13.477v20.981" class="secondary"/></g><g style="display:block"><path stroke="#121331" d="M179.573 218.068c-20.878-28.83 35.401-62.386 35.401-62.386s56.381 33.556 35.401 62.386m-35.401-62.386v-18.376" class="primary"/><path stroke="#08A88A" d="M214.991 218.067v-15.458" class="secondary"/><path stroke="#121331" d="M126.908 270.522H28.185v77.836h373.612v-77.836h-98.74m-41.386.003v-22.57m-93.38 22.57v-22.64m0-12.68v-17.14h93.38v17.22" class="primary"/><path stroke="#121331" d="M128.148 250.15c-11.466-17.481 19.442-37.826 19.442-37.826s30.963 20.345 19.441 37.826m-19.442-37.826v-11.142m-20.678 147.173v-98.2h41.38v20.37" class="primary"/><path stroke="#08A88A" d="M214.991 270.522v-23.288" class="secondary"/><path stroke="#121331" d="M262.915 250.219c-11.466-17.481 19.442-37.826 19.442-37.826s30.963 20.345 19.441 37.826m-19.441-37.827V201.25" class="primary"/><path stroke="#121331" d="M303.061 348.425v-98.21h-41.39v20.31m0 77.9v-.07" class="primary"/><path stroke="#121331" d="M275.074 293.594H154.908v-23.072h120.166v23.072zm-105.601.092v54.74m62.246-54.74v54.74m-31.123-54.74v54.74m62.246-54.74v54.74" class="primary"/><path stroke="#08A88A" d="M54.213 292.958v5.168m23.333-5.168v5.168m23.334-5.168v5.168m-46.667 22.628v5.168m23.333-5.168v5.168m23.334-5.168v5.168m228.214-32.964v5.168m23.333-5.168v5.168m23.334-5.168v5.168m-46.667 22.628v5.168m23.333-5.168v5.168m23.334-5.168v5.168" class="secondary"/></g></g><g style="display:none"><path class="primary"/><path class="primary"/></g><path stroke="#121331" stroke-linecap="round" stroke-linejoin="round" stroke-width="12" d="M484 237v25.5m0-25.5v25.5" class="primary" style="display:block"/></g><g clip-path="url(#n)" style="display:none"><g clip-path="url(#o)" mask="url(#p)" style="display:none"><path class="secondary"/><path class="secondary"/><path class="secondary"/><path class="secondary"/><path class="secondary"/><path class="secondary"/><path class="secondary"/><path class="secondary"/><path class="secondary"/><path class="secondary"/></g><g clip-path="url(#q)" style="display:none"><path class="primary"/><path class="primary"/><path class="secondary"/><path class="secondary"/><path class="secondary"/><path class="secondary"/><path class="secondary"/><path class="secondary"/><path class="secondary"/><path class="secondary"/><path class="secondary"/><path class="secondary"/><path class="secondary"/><path class="secondary"/><path class="secondary"/><path class="primary"/><path class="primary"/><path class="primary"/><path class="primary"/><path class="primary"/><path class="primary"/><path class="primary"/><path class="secondary"/><path class="primary"/><path class="primary"/><path class="primary"/><path class="primary"/><path class="primary"/><path class="primary"/><path class="primary"/><path class="primary"/><path class="primary"/></g></g></g></svg>